<svg width="64" height="65" viewBox="0 0 64 65" fill="none" xmlns="http://www.w3.org/2000/svg">
<circle cx="32" cy="32.5" r="32" fill="#EEF5FF"/>
<path fill-rule="evenodd" clip-rule="evenodd" d="M24.3764 29.3651C26.2372 34.0178 29.0152 40.9628 31.1162 46.2149C31.6935 47.658 33.1505 48.5501 34.6985 48.4081C36.2461 48.2661 37.5165 47.1234 37.8211 45.5994C38.2306 43.5531 38.6311 41.5506 38.8941 40.2357C38.9866 39.7722 39.3489 39.41 39.8123 39.3174L45.176 38.2448C46.7001 37.9399 47.8424 36.6695 47.9847 35.1218C48.1267 33.5738 47.2347 32.1168 45.7916 31.5395L28.9418 24.7997C27.6373 24.2779 26.1473 24.5836 25.1538 25.5771C24.1602 26.5707 23.8545 28.0606 24.3764 29.3651ZM26.5504 28.4956C26.3762 28.0606 26.4781 27.5638 26.8093 27.233C27.1405 26.9018 27.6373 26.7996 28.0722 26.9738L44.9217 33.7135C45.4031 33.9061 45.7002 34.3916 45.653 34.9075C45.6054 35.4234 45.2248 35.8471 44.7167 35.9486L39.353 37.0212C37.9627 37.2992 36.8759 38.3861 36.5979 39.7767C36.3349 41.0917 35.9344 43.0942 35.5253 45.1401C35.4238 45.6481 35.0001 46.0291 34.4842 46.0763C33.9683 46.1235 33.4828 45.8264 33.2902 45.3454L26.5504 28.4956Z" fill="#B6D3FF"/>
<path fill-rule="evenodd" clip-rule="evenodd" d="M22.814 21.5867L21.1585 19.9312C20.7014 19.4741 19.9596 19.4741 19.503 19.9312C19.0459 20.3879 19.0459 21.13 19.503 21.5867L21.1585 23.2426C21.6155 23.6993 22.3573 23.6993 22.814 23.2426C23.2711 22.7856 23.2711 22.0438 22.814 21.5867Z" fill="#B6D3FF"/>
<path fill-rule="evenodd" clip-rule="evenodd" d="M34.7835 23.2426L36.4394 21.5867C36.8961 21.13 36.8961 20.3879 36.4394 19.9312C35.9823 19.4741 35.2406 19.4741 34.7835 19.9312L33.128 21.5867C32.6709 22.0438 32.6709 22.7856 33.128 23.2426C33.5846 23.6993 34.3268 23.6993 34.7835 23.2426Z" fill="#B6D3FF"/>
<path fill-rule="evenodd" clip-rule="evenodd" d="M20.514 37.5137L22.1699 35.8582C22.6266 35.4011 22.6266 34.6593 22.1699 34.2027C21.7128 33.7456 20.971 33.7456 20.514 34.2027L18.8584 35.8582C18.4014 36.3153 18.4014 37.057 18.8584 37.5137C19.3151 37.9708 20.0573 37.9708 20.514 37.5137Z" fill="#B6D3FF"/>
<path fill-rule="evenodd" clip-rule="evenodd" d="M19.5123 27.2266H17.1708C16.5245 27.2266 16 27.7511 16 28.3973C16 29.0432 16.5245 29.5681 17.1708 29.5681H19.5123C20.1585 29.5681 20.683 29.0432 20.683 28.3973C20.683 27.7511 20.1585 27.2266 19.5123 27.2266Z" fill="#B6D3FF"/>
<path fill-rule="evenodd" clip-rule="evenodd" d="M29.1442 20.0899V17.7484C29.1442 17.1025 28.6194 16.5776 27.9735 16.5776C27.3272 16.5776 26.8027 17.1025 26.8027 17.7484V20.0899C26.8027 20.7361 27.3272 21.2606 27.9735 21.2606C28.6194 21.2606 29.1442 20.7361 29.1442 20.0899Z" fill="#B6D3FF"/>
</svg>
